<svg width="12" height="12" viewBox="0 0 12 12" fill="none" xmlns="http://www.w3.org/2000/svg">
<path d="M5.16675 6.8333H1.00008C0.763973 6.8333 0.566195 6.7533 0.406751 6.5933C0.247307 6.4333 0.167306 6.23552 0.166751 5.99996C0.166195 5.76441 0.246195 5.56663 0.406751 5.40663C0.567307 5.24663 0.765084 5.16663 1.00008 5.16663H5.16675V0.999962C5.16675 0.763851 5.24675 0.566073 5.40675 0.406629C5.56675 0.247184 5.76453 0.167184 6.00008 0.166629C6.23564 0.166073 6.4337 0.246073 6.59425 0.406629C6.75481 0.567184 6.83453 0.764962 6.83342 0.999962V5.16663H11.0001C11.2362 5.16663 11.4343 5.24663 11.5943 5.40663C11.7543 5.56663 11.834 5.76441 11.8334 5.99996C11.8329 6.23552 11.7529 6.43357 11.5934 6.59413C11.434 6.75468 11.2362 6.83441 11.0001 6.8333H6.83342V11C6.83342 11.2361 6.75342 11.4341 6.59342 11.5941C6.43342 11.7541 6.23564 11.8339 6.00008 11.8333C5.76453 11.8327 5.56675 11.7527 5.40675 11.5933C5.24675 11.4339 5.16675 11.2361 5.16675 11V6.8333Z" fill="white"/>
</svg>
