<svg width="16" height="19" viewBox="0 0 16 19" fill="none" xmlns="http://www.w3.org/2000/svg">
<path fill-rule="evenodd" clip-rule="evenodd" d="M8.45488 6.4876L14 4.67603L12.6198 10.9928L10.898 9.13034L8.12069 12.3901C8.02641 12.5008 7.89615 12.5633 7.76 12.5633C7.62385 12.5633 7.49359 12.5008 7.39931 12.3901L5.36 9.99658L2.36069 13.5169C2.16946 13.7413 1.85294 13.7486 1.65373 13.5331C1.45453 13.3177 1.44807 12.961 1.63931 12.7366L4.99931 8.79291C5.09359 8.68224 5.22385 8.61969 5.36 8.61969C5.49615 8.61969 5.62641 8.68224 5.72069 8.79291L7.76 11.1865L10.1766 8.35002L8.45488 6.4876Z" fill="black"/>
</svg>
