<svg width="16" height="19" viewBox="0 0 16 19" fill="none" xmlns="http://www.w3.org/2000/svg">
<path fill-rule="evenodd" clip-rule="evenodd" d="M14.3463 4.26964C14.5455 4.48512 14.5519 4.84175 14.3607 5.06621L11.0007 9.00987C10.9064 9.12054 10.7761 9.18309 10.64 9.18309C10.5039 9.18309 10.3736 9.12054 10.2793 9.00987L8.24 6.61632L5.82335 9.45276L7.54513 11.3152L2 13.1268L3.38019 6.81002L5.10197 8.67244L7.87931 5.41265C7.97359 5.30199 8.10385 5.23943 8.24 5.23943C8.37615 5.23943 8.50641 5.30199 8.60069 5.41265L10.64 7.80621L13.6393 4.28589C13.8305 4.06144 14.1471 4.05416 14.3463 4.26964Z" fill="black"/>
</svg>
