<svg width="30" height="30" viewBox="0 0 30 30" fill="none" xmlns="http://www.w3.org/2000/svg">
<circle opacity="0.05" cx="15" cy="15" r="15" fill="#FF0000"/>
<path d="M18.1465 13.4229C18.2484 13.4229 18.341 13.4678 18.4141 13.543C18.4821 13.6232 18.5168 13.7229 18.5068 13.8281C18.5057 13.8766 18.2334 17.3108 18.0781 18.7578C17.9806 19.6474 17.4072 20.1873 16.5469 20.2021C15.8853 20.217 15.2383 20.2227 14.6016 20.2227C13.9257 20.2227 13.2647 20.217 12.623 20.2021C11.7915 20.1822 11.2176 19.6326 11.125 18.7578C10.9653 17.3057 10.6984 13.877 10.6924 13.8281C10.6874 13.7229 10.7215 13.6232 10.79 13.543C10.8576 13.4678 10.9552 13.4229 11.0576 13.4229H18.1465ZM15.6553 10C16.107 10 16.511 10.3151 16.6279 10.7646L16.7109 11.1387C16.7787 11.4426 17.0426 11.6572 17.3457 11.6572H18.8359C19.0345 11.6574 19.2 11.8225 19.2002 12.0322V12.2266C19.2002 12.4314 19.0346 12.6014 18.8359 12.6016H10.3652C10.1659 12.6016 10 12.4315 10 12.2266V12.0322C10.0002 11.8224 10.166 11.6572 10.3652 11.6572H11.8555C12.158 11.6571 12.4212 11.4421 12.4893 11.1387L12.5674 10.79C12.6887 10.3153 13.0881 10 13.5449 10H15.6553Z" fill="#FF0000"/>
</svg>
