<svg width="22" height="22" viewBox="0 0 22 22" fill="none" xmlns="http://www.w3.org/2000/svg">
<path d="M0 10.5901C0 8.1816 0 6.97737 0.257241 5.98762C0.987021 3.17975 3.17975 0.987021 5.98762 0.257241C6.97737 0 8.1816 0 10.5901 0C12.9985 0 14.2028 0 15.1925 0.257241C18.0004 0.987021 20.1931 3.17975 20.9229 5.98762C21.1801 6.97737 21.1801 8.1816 21.1801 10.5901C21.1801 12.9985 21.1801 14.2028 20.9229 15.1925C20.1931 18.0004 18.0004 20.1931 15.1925 20.9229C14.2028 21.1801 12.9985 21.1801 10.5901 21.1801C8.1816 21.1801 6.97737 21.1801 5.98762 20.9229C3.17975 20.1931 0.987021 18.0004 0.257241 15.1925C0 14.2028 0 12.9985 0 10.5901Z" fill="#C46436"/>
<path fill-rule="evenodd" clip-rule="evenodd" d="M6.23653 8.24976C6.4318 8.03686 6.74838 8.03686 6.94364 8.24976L10.2365 11.8401C10.4318 12.053 10.7484 12.053 10.9436 11.8401L14.2365 8.24976C14.4318 8.03686 14.7484 8.03686 14.9436 8.24976C15.1389 8.46266 15.1389 8.80784 14.9436 9.02074L11.6507 12.6111C11.065 13.2498 10.1152 13.2498 9.52943 12.6111L6.23653 9.02074C6.04127 8.80784 6.04127 8.46266 6.23653 8.24976Z" fill="white"/>
</svg>
