<svg width="21" height="21" viewBox="0 0 21 21" fill="none" xmlns="http://www.w3.org/2000/svg">
<path d="M21 10.5C21 12.8245 21 13.9867 20.7602 14.9438C20.043 17.8072 17.8072 20.043 14.9438 20.7602C13.9867 21 12.8245 21 10.5 21C8.17553 21 7.01329 21 6.05616 20.7602C3.19276 20.043 0.956995 17.8072 0.23975 14.9438C0 13.9867 0 12.8245 0 10.5C0 8.17553 0 7.01329 0.23975 6.05616C0.956995 3.19276 3.19276 0.956995 6.05616 0.23975C7.01329 0 8.17553 0 10.5 0C12.8245 0 13.9867 0 14.9438 0.23975C17.8072 0.956995 20.043 3.19276 20.7602 6.05616C21 7.01329 21 8.17553 21 10.5Z" fill="#C46436"/>
<path fill-rule="evenodd" clip-rule="evenodd" d="M14.8536 12.8403C14.6583 13.0532 14.3417 13.0532 14.1464 12.8403L10.8536 9.25C10.6583 9.0371 10.3417 9.0371 10.1464 9.25L6.85355 12.8403C6.65829 13.0532 6.34171 13.0532 6.14645 12.8403C5.95118 12.6274 5.95118 12.2822 6.14645 12.0693L9.43934 8.47902C10.0251 7.84033 10.9749 7.84032 11.5607 8.47902L14.8536 12.0693C15.0488 12.2822 15.0488 12.6274 14.8536 12.8403Z" fill="white"/>
</svg>
