<svg width="22" height="22" viewBox="0 0 22 22" fill="none" xmlns="http://www.w3.org/2000/svg">
<path d="M0.251099 10.5901C0.251099 8.1816 0.251099 6.97737 0.50834 5.98762C1.23812 3.17975 3.43085 0.987021 6.23872 0.257241C7.22847 0 8.4327 0 10.8412 0C13.2496 0 14.4539 0 15.4436 0.257241C18.2515 0.987021 20.4442 3.17975 21.174 5.98762C21.4312 6.97737 21.4312 8.1816 21.4312 10.5901C21.4312 12.9985 21.4312 14.2028 21.174 15.1925C20.4442 18.0004 18.2515 20.1931 15.4436 20.9229C14.4539 21.1801 13.2496 21.1801 10.8412 21.1801C8.4327 21.1801 7.22847 21.1801 6.23872 20.9229C3.43085 20.1931 1.23812 18.0004 0.50834 15.1925C0.251099 14.2028 0.251099 12.9985 0.251099 10.5901Z" fill="black" fill-opacity="0.04"/>
<path fill-rule="evenodd" clip-rule="evenodd" d="M6.48763 8.24976C6.6829 8.03686 6.99948 8.03686 7.19474 8.24976L10.4876 11.8401C10.6829 12.053 10.9995 12.053 11.1947 11.8401L14.4876 8.24976C14.6829 8.03686 14.9995 8.03686 15.1947 8.24976C15.39 8.46266 15.39 8.80784 15.1947 9.02074L11.9018 12.6111C11.3161 13.2498 10.3663 13.2498 9.78053 12.6111L6.48763 9.02074C6.29237 8.80784 6.29237 8.46266 6.48763 8.24976Z" fill="black" fill-opacity="0.4"/>
</svg>
