<svg width="8" height="8" viewBox="0 0 8 8" fill="none" xmlns="http://www.w3.org/2000/svg">
<path d="M7.55151 7.08984C7.79885 7.09009 7.99967 7.29433 7.99976 7.54492C7.99976 7.79607 7.79891 7.99975 7.55151 8H5.01343C4.76582 8 4.56421 7.79623 4.56421 7.54492C4.5643 7.29417 4.76588 7.08984 5.01343 7.08984H7.55151ZM4.10718 0.425781C4.51273 -0.0949197 5.22014 -0.143152 5.79077 0.310547L6.44702 0.831055C6.7158 1.04126 6.89451 1.31895 6.95581 1.61035C7.02649 1.93079 6.95107 2.24534 6.73901 2.51758L2.83374 7.56836C2.65453 7.79747 2.39001 7.92589 2.10718 7.93066L0.551514 7.9502C0.466621 7.9502 0.395574 7.89274 0.376709 7.81152L0.0231934 6.27832C-0.0380827 5.9966 0.0229252 5.70497 0.201904 5.48047L2.97046 1.89648C3.01758 1.83933 3.10238 1.83074 3.15894 1.87305L4.32397 2.7998C4.39943 2.86191 4.50359 2.89519 4.61206 2.88086C4.84296 2.85214 4.99871 2.64234 4.97534 2.41797C4.96119 2.3033 4.90432 2.20741 4.82886 2.13574C4.80462 2.1161 3.69702 1.22754 3.69702 1.22754C3.62645 1.17017 3.61216 1.06526 3.6687 0.994141L4.10718 0.425781Z" fill="#737791"/>
</svg>
