<svg width="195" height="188" viewBox="0 0 195 188" fill="none" xmlns="http://www.w3.org/2000/svg">
<path d="M22.1591 188C16.0653 188 10.8506 185.956 6.51477 181.869C2.17898 177.782 0.00738636 172.862 0 167.111V20.8889C0 15.1444 2.17159 10.2286 6.51477 6.14133C10.858 2.05407 16.0727 0.00696296 22.1591 0H88.6364C91.7756 0 94.4088 1.00267 96.5361 3.008C98.6633 5.01333 99.7233 7.49214 99.7159 10.4444C99.7085 13.3967 98.6449 15.879 96.525 17.8913C94.4051 19.9036 91.7756 20.9028 88.6364 20.8889H22.1591V167.111H88.6364C91.7756 167.111 94.4088 168.114 96.5361 170.119C98.6633 172.124 99.7233 174.603 99.7159 177.555C99.7085 180.508 98.6449 182.99 96.525 185.002C94.4051 187.015 91.7756 188.014 88.6364 188H22.1591ZM157.053 104.444H77.5568C74.4176 104.444 71.7881 103.442 69.6682 101.436C67.5483 99.431 66.4847 96.9522 66.4773 93.9999C66.4699 91.0476 67.5335 88.5688 69.6682 86.5635C71.8028 84.5581 74.4324 83.5555 77.5568 83.5555H157.053L136.278 63.9722C134.247 62.0574 133.232 59.7074 133.232 56.9222C133.232 54.137 134.247 51.7 136.278 49.6111C138.31 47.5222 140.895 46.4325 144.034 46.342C147.173 46.2514 149.851 47.2541 152.067 49.35L191.676 86.6888C193.892 88.7777 195 91.2147 195 93.9999C195 96.7851 193.892 99.2221 191.676 101.311L152.067 138.65C149.851 140.739 147.221 141.741 144.178 141.658C141.135 141.574 138.502 140.485 136.278 138.389C134.247 136.3 133.28 133.821 133.376 130.952C133.472 128.084 134.532 125.688 136.555 123.767L157.053 104.444Z" fill="black"/>
</svg>
