<svg width="282" height="283" viewBox="0 0 282 283" fill="none" xmlns="http://www.w3.org/2000/svg">
<path d="M32.0455 282.333C23.233 282.333 15.6916 279.268 9.42136 273.137C3.15114 267.006 0.0106818 259.627 0 251V31.6667C0 23.05 3.14046 15.6763 9.42136 9.54537C15.7023 3.41448 23.2436 0.343818 32.0455 0.333374H128.182C132.722 0.333374 136.53 1.83737 139.606 4.84537C142.682 7.85337 144.215 11.5716 144.205 16C144.194 20.4285 142.656 24.1519 139.59 27.1703C136.524 30.1888 132.722 31.6876 128.182 31.6667H32.0455V251H128.182C132.722 251 136.53 252.504 139.606 255.512C142.682 258.52 144.215 262.238 144.205 266.666C144.194 271.095 142.656 274.818 139.59 277.837C136.524 280.855 132.722 282.354 128.182 282.333H32.0455ZM227.122 157H112.159C107.619 157 103.817 155.496 100.751 152.488C97.6852 149.48 96.147 145.762 96.1364 141.333C96.1257 136.905 97.6639 133.187 100.751 130.179C103.838 127.171 107.641 125.667 112.159 125.667H227.122L197.08 96.2916C194.142 93.4194 192.673 89.8944 192.673 85.7166C192.673 81.5389 194.142 77.8833 197.08 74.75C200.017 71.6166 203.756 69.9821 208.295 69.8463C212.835 69.7105 216.707 71.2145 219.912 74.3583L277.193 130.367C280.398 133.5 282 137.155 282 141.333C282 145.511 280.398 149.167 277.193 152.3L219.912 208.308C216.707 211.442 212.905 212.946 208.504 212.82C204.103 212.695 200.295 211.06 197.08 207.917C194.142 204.783 192.743 201.065 192.882 196.762C193.02 192.459 194.553 188.866 197.48 185.983L227.122 157Z" fill="white"/>
</svg>
