<svg width="291" height="242" viewBox="0 0 291 242" fill="none" xmlns="http://www.w3.org/2000/svg">
<path d="M55.2658 60.5L112.265 3.6058C114.678 1.21 117.843 0 121.007 0C128.44 0 133.375 6.1105 133.375 12.4509C133.375 15.4759 132.26 18.5493 129.75 21.054L90.2221 60.5H55.2658V60.5ZM200.778 60.5H235.734L178.735 3.6058C176.322 1.21 173.157 0 169.993 0C162.56 0 157.625 6.1105 157.625 12.4509C157.625 15.4759 158.74 18.5493 161.25 21.054L200.778 60.5ZM0 84.7V108.9H7.79638C14.2711 108.9 20.176 112.578 23.0254 118.386L72.75 242H218.25L267.987 118.411C270.812 112.591 276.741 108.9 283.216 108.9H291V84.7H0Z" fill="black"/>
</svg>
