<svg width="20" height="20" viewBox="0 0 20 20" fill="none" xmlns="http://www.w3.org/2000/svg">
<path d="M3.79833 5.83335L7.71583 1.91502C7.88167 1.75002 8.09917 1.66669 8.31667 1.66669C8.8275 1.66669 9.16667 2.08752 9.16667 2.52419C9.16667 2.73252 9.09 2.94419 8.9175 3.11669L6.20083 5.83335H3.79833V5.83335ZM13.7992 5.83335H16.2017L12.2842 1.91502C12.1183 1.75002 11.9008 1.66669 11.6833 1.66669C11.1725 1.66669 10.8333 2.08752 10.8333 2.52419C10.8333 2.73252 10.91 2.94419 11.0825 3.11669L13.7992 5.83335ZM0 7.50002V9.16669H0.535833C0.980833 9.16669 1.38667 9.42002 1.5825 9.82002L5 18.3334H15L18.4183 9.82169C18.6125 9.42085 19.02 9.16669 19.465 9.16669H20V7.50002H0Z" fill="white"/>
</svg>
