<svg width="40" height="40" viewBox="0 0 40 40" fill="none" xmlns="http://www.w3.org/2000/svg">
<path d="M19.9999 3.33334C29.2166 3.33334 36.6666 10.7833 36.6666 20C36.6666 29.2167 29.2166 36.6667 19.9999 36.6667C10.7833 36.6667 3.33325 29.2167 3.33325 20C3.33325 10.7833 10.7833 3.33334 19.9999 3.33334ZM28.3333 11.6667H24.1666L22.4999 10H17.4999L15.8333 11.6667H11.6666V15H28.3333V11.6667ZM14.9999 30H24.9999C25.4419 30 25.8659 29.8244 26.1784 29.5119C26.491 29.1993 26.6666 28.7754 26.6666 28.3333V16.6667H13.3333V28.3333C13.3333 28.7754 13.5088 29.1993 13.8214 29.5119C14.134 29.8244 14.5579 30 14.9999 30Z" fill="#EF3D46"/>
</svg>
